<svg xmlns="http://www.w3.org/2000/svg" version="1.1" xmlns:xlink="http://www.w3.org/1999/xlink" xmlns:svgjs="http://svgjs.com/svgjs" width="135px" height="152px"><svg width="135px" height="152px" viewBox="0 0 135 152" version="1.1" xmlns="http://www.w3.org/2000/svg" xmlns:xlink="http://www.w3.org/1999/xlink">
    <title>unicorn</title>
    <g id="SvgjsG1033" stroke="none" stroke-width="1" fill="none" fill-rule="evenodd">
        <g id="SvgjsG1032" transform="translate(1.000000, 1.000000)">
            <path d="M52.1384545,150 C68.7258381,150 86.5292861,143.113459 95.778191,130.415391 C102.140973,121.679757 103.110665,107.082138 103.110665,95.3162796 C103.110665,66.4476344 80.4132585,43.0449735 52.4145882,43.0449735 C24.415918,43.0449735 1.71851109,66.4476344 1.71851109,95.3162796 C1.71851109,110.749349 5.08474091,127.758737 15.4004164,137.327088 C24.3809395,145.657013 39.1077684,150 52.1384545,150 Z" id="SvgjsPath1031" stroke="#000000" fill="#FFFFFF"></path>
            <path d="M90.0373672,135.095121 C92.129328,132.95503 92.236924,132.727693 91.9344488,131.086837 C91.4096499,128.239884 89.0168466,123.900423 86.3533435,120.965192 C81.5763294,115.700855 74.5482721,111.687721 65.9785557,109.330834 C61.7181777,108.159134 60.8911614,108.084737 52.1265314,108.084737 C43.3788632,108.084737 42.5289219,108.16083 38.3113864,109.321288 C29.9217699,111.629726 22.7441042,115.674222 18.2522599,120.624315 C15.5984663,123.548835 12.8080683,128.519904 12.2978767,131.231963 C12.0225197,132.695782 12.1796432,133.012152 14.2156836,135.095121 C17.2984862,138.248863 21.3608746,141.06908 25.8281906,143.156813 C32.021189,146.051015 36.6032379,147.169621 47.1249424,148.355922 C49.9935326,148.679353 60.1237087,148.151464 64.4549409,147.452863 C74.6230789,145.812778 83.9782065,141.293726 90.0373672,135.095121 Z" id="SvgjsPath1030" stroke="#000000" fill="#F8C8E0"></path>
            <path d="M31.462776,126.288382 C28.7321134,123.567909 28.2329031,123.239731 27.7751433,123.864039 C26.8812082,125.083246 26.5998021,124.66475 27.3459624,123.225781 C27.7339163,122.477581 28.2339686,121.865441 28.4571688,121.865441 C28.6803691,121.865441 29.2378025,121.735877 29.6958888,121.577709 C30.4780348,121.30751 30.4766256,121.330543 29.6728608,121.955571 C28.8530622,122.593109 28.8504673,122.672065 29.6109944,123.829711 C31.492764,126.693802 37.9104234,130.232929 44.1693267,131.858138 C55.1782634,134.716762 65.1665936,132.58968 72.393706,125.847555 C75.2000346,123.229551 75.304228,123.057998 74.575648,122.255128 C73.4102569,120.970899 74.7023023,121.212599 76.018235,122.524985 C76.6320699,123.137142 77.1343048,123.895042 77.1343048,124.209218 C77.1343048,124.600002 76.9003123,124.547097 76.3935406,124.041779 C75.7089889,123.359115 75.3898614,123.571251 72.1876566,126.837574 C68.4552911,130.644707 65.0448886,132.692131 60.4457405,133.886779 C56.7253702,134.853164 49.10001,134.731072 44.9157448,133.638139 C39.2970212,132.170412 35.0232904,129.835582 31.462776,126.288382 Z" id="SvgjsPath1029" stroke="#000000"></path>
            <path d="M38.9405333,118.333855 C38.9405333,117.742041 40.3697159,116.580607 41.5322714,116.22763 C42.686939,115.877035 45.0609418,116.946437 45.4662183,117.999713 C45.7090783,118.630859 45.6018088,118.632555 44.4071858,118.016851 C42.7065472,117.139824 41.2261187,117.146594 39.9510866,118.037245 C39.3952857,118.425475 38.9405333,118.559136 38.9405333,118.334249 L38.9405333,118.333855 Z" id="SvgjsPath1028" stroke="#000000"></path>
            <path d="M64.1750814,117.944391 C63.2787232,117.280734 61.3347091,117.301831 59.7374218,117.992549 C58.4328828,118.556651 59.2585243,117.088101 60.5846821,116.485507 C62.2220279,115.741524 62.8338179,115.837994 64.2641175,117.065684 C65.680583,118.281515 65.6073057,119.004813 64.1750986,117.944408 L64.1750814,117.944391 Z" id="SvgjsPath1027" stroke="#000000"></path>
            <g id="SvgjsG1026" transform="translate(9.872695, 78.107897)">
                <path d="M9.9709063,30.0110477 C6.7012671,29.5660218 6.40829533,29.462456 8.06858327,29.3385816 L10.0311057,29.1922219 L8.22910939,27.8904265 C3.19050361,24.2504584 1.00873349,17.2990945 2.74571857,10.4197621 C3.24221361,8.45334989 3.22415206,8.39706826 1.60899223,6.87794414 C-0.387780178,4.99987896 -0.591561223,3.75779276 1.36669935,5.40104838 C2.78670506,6.59264564 4.24728482,6.91977832 4.72265936,6.15270976 C4.86649874,5.92045378 4.46945394,4.97376044 3.84011799,4.04891823 C2.23300079,1.68718065 2.41301483,0.780779069 4.10705432,2.70489441 C5.74723567,4.5678609 7.07210461,4.88034048 6.57707031,3.28748811 C6.4026758,2.72635136 6.15273555,1.75710424 6.02166471,1.13361895 L5.78335878,0 L6.6003905,1.13361895 C7.82505306,2.83283058 8.19803871,2.95098087 9.71668696,2.12075828 C10.7689141,1.54551685 12.270257,1.36033932 15.8818747,1.36033932 C21.1483722,1.36033932 22.8020611,1.9234641 26.1536389,4.8581466 C32.5207053,10.4332156 32.8358287,20.4386119 26.831918,26.3931021 C23.289912,29.9059395 17.8206646,31.0795246 9.9709063,30.0111162 L9.9709063,30.0110477 Z" id="SvgjsPath1025" stroke="#000000"></path>
                <ellipse id="SvgjsEllipse1024" fill="#000000" cx="20.2012492" cy="17.2083823" rx="9.451811" ry="9.42597322"></ellipse>
            </g>
            <g id="SvgjsG1023" transform="translate(63.274198, 78.469149)">
                <path d="M1.09906203,21.9800361 C-0.341806413,18.7289837 -0.369869699,13.3044903 1.03805488,10.1772609 C2.46931684,6.99808579 5.66873768,3.82352084 8.89819809,2.37819352 C12.5086352,0.762358914 17.6000508,0.626659175 20.8485524,2.05969845 C23.1766709,3.08671822 23.5151488,2.96322083 25.1072978,0.505783923 C25.6035522,-0.260153523 25.6364961,-0.202603672 25.3896148,0.999019394 C25.2359799,1.74720173 24.9319409,2.55320814 24.714154,2.79014283 C24.4963671,3.02706038 24.3181747,3.48617383 24.3181747,3.81039303 C24.3181747,4.89179209 25.5722582,4.41778561 26.9992067,2.79703236 C28.6934008,0.872711353 28.8360201,1.55535747 27.2895663,4.18696923 C26.6731192,5.23597722 26.2980026,6.22313369 26.4559681,6.38068455 C27.1073182,7.03025407 28.4765419,6.58145778 30.0519698,5.2019923 L31.7251981,3.73688758 L30.9862555,5.16195762 C30.5798276,5.945753 29.7068584,7.01099081 29.0462971,7.52914512 C27.9023702,8.42649777 27.8695294,8.56723612 28.3551807,10.4906659 C29.144235,13.6156846 28.9800828,18.1530053 27.9748054,21.0053905 C26.9431832,23.9325151 24.4211479,27.2051958 22.3495171,28.304967 L20.9079957,29.070236 L23.1814483,29.6147488 C25.2644728,30.113657 24.8646097,30.1602556 18.4072011,30.1712068 C13.5301182,30.1797759 10.7040955,29.982019 9.23145176,29.5300693 C6.31974405,28.6365042 2.46180695,25.0548057 1.09906203,21.9800361 Z" id="SvgjsPath1022" stroke="#000000"></path>
                <ellipse id="SvgjsEllipse1021" fill="#000000" cx="11.4810343" cy="18.5609443" rx="9.451811" ry="9.42597322"></ellipse>
            </g>
            <path d="M88.4113464,70.6026631 C87.9865477,70.3556169 86.1679677,69.9692891 84.3700786,69.7441626 C80.9304099,69.3134471 79.6353399,68.5700446 80.1218848,67.3056274 C80.5046316,66.3108958 83.8024715,66.2799101 86.1291809,67.2492429 C87.8219315,67.9544085 90.3204576,70.0179614 90.3204576,70.7108562 C90.3204576,71.2078449 89.3581601,71.1533456 88.4113464,70.6027145 L88.4113464,70.6026631 Z" id="SvgjsPath1020" stroke="#000000"></path>
            <path d="M22.9036406,70.6026631 C22.4782748,70.3556169 20.6572673,69.9692891 18.8569782,69.7441626 C15.4127181,69.3134471 14.1159194,68.5700446 14.6031137,67.3056274 C14.9863714,66.3108958 18.2886135,66.2799101 20.6184287,67.2492429 C22.3134389,67.9544085 24.8153001,70.0179614 24.8153001,70.7108562 C24.8153001,71.2078449 23.8517181,71.1533456 22.9036406,70.6027145 L22.9036406,70.6026631 Z" id="SvgjsPath1019" stroke="#000000" transform="translate(19.659767, 68.796277) scale(-1, 1) translate(-19.659767, -68.796277) "></path>
            <g id="SvgjsG1018" transform="translate(71.758842, 90.253798) rotate(1.000000) translate(-71.758842, -90.253798) translate(11.447080, 36.621234)">
                <path d="M19.4917846,34.8631595 C20.8978448,34.2139432 20.8139925,34.0954864 18.4334047,33.3783181 C14.0147965,32.0403998 12.2099265,29.4683275 12.2293557,24.5326302 C12.2416267,21.892606 12.7805313,19.2130963 13.647687,17.5097068 C15.6171939,13.6428749 21.12895,9.33802849 26.0782819,7.80268226 C31.7904655,6.03134083 42.8078422,6.15255237 50.5611139,8.07173516 C53.7239825,8.85410058 57.1752212,9.69707177 58.2305333,9.94408621 L60.1478882,10.3958747 L58.2305333,8.9789852 C49.278787,2.36836469 31.2597417,-1.62335185 20.5777743,0.635590566 C8.11138874,3.276533 0.869411641,9.85134101 0.122921485,19.2057501 C-0.197148952,23.1910388 0.0380465765,24.4610052 1.66805385,27.6639284 C5.26347767,34.7088903 13.0361786,37.8512078 19.4917846,34.8631595 Z" id="SvgjsPath1017" stroke="#000000" fill="#F2B5D3"></path>
                <path d="M24.6473178,38.2907862 C26.0533781,37.6415698 25.9695257,37.523113 23.588938,36.8059447 C19.1703298,35.4680264 17.3654597,32.8959542 17.3848889,27.9602568 C17.39716,25.3202326 17.9360646,22.6407229 18.8032202,20.9373334 C20.7727271,17.0705015 26.2844832,12.7656551 31.2338152,11.2303089 C36.9459988,9.45896745 47.9633754,9.580179 55.7166472,11.4993618 C58.8795157,12.2817272 62.3307545,13.1246984 63.3860666,13.3717128 L65.3034214,13.8235013 L63.3860666,12.4066118 C54.4343202,5.79599131 36.415275,1.80427477 25.7333076,4.06321719 C13.266922,6.70415963 6.02494491,13.2789676 5.27845475,22.6333767 C4.95838432,26.6186654 5.19357985,27.8886318 6.82358712,31.091555 C10.4190109,38.1365169 18.1917119,41.2788344 24.6473178,38.2907862 Z" id="SvgjsPath1016" stroke="#000000" fill="#FEF2A9"></path>
                <path d="M29.8028511,40.0045995 C31.2089113,39.3553831 31.125059,39.2369264 28.7444712,38.5197581 C24.3258631,37.1818397 22.520993,34.6097675 22.5404222,29.6740701 C22.5526933,27.034046 23.0915978,24.3545362 23.9587535,22.6511467 C25.9282604,18.7843148 31.4400165,14.4794684 36.3893485,12.9441222 C42.1015321,11.1727808 53.1189087,11.2939923 60.8721804,13.2131751 C64.035049,13.9955405 67.4862877,14.8385117 68.5415998,15.0855261 L70.4589547,15.5373146 L68.5415998,14.1204251 C59.5898535,7.50980463 41.5708082,3.51808809 30.8888409,5.77703051 C18.4224553,8.41797294 11.1804782,14.992781 10.433988,24.3471901 C10.1139176,28.3324787 10.3491131,29.6024451 11.9791204,32.8053684 C15.5745442,39.8503302 23.3472451,42.9926477 29.8028511,40.0045995 Z" id="SvgjsPath1015" stroke="#000000" fill="#B6E4EF"></path>
                <path d="M118.758199,69.4749566 C118.758199,70.7813962 115.301311,77.383125 113.130534,77.9293298 C106.204421,79.6683955 101.098259,71.6334209 101.907508,60.2698504 C102.057453,58.1563747 100.217278,40.0238329 99.5123705,38.3015831 C94.6673463,26.4640785 75.0064157,17.4327277 75.8712597,21.5727306 C76.3173783,23.7071994 98.4273405,54.9525258 97.707997,61.0571202 C97.0358081,66.7615455 96.1573367,71.9331063 96.0258636,72.3147114 L93.3770266,80.9035071 L95.2727505,82.5712142 C97.3239797,84.0062924 99.0396553,84.9569361 102.1805,86.5778573 C105.321345,88.1987784 109.768204,88.6420026 113.130534,88.5352729 C114.411029,88.4952481 118.75187,87.1701232 120.234137,84.0062924 C121.647624,80.9892681 118.758199,69.0200713 118.758199,69.4749566 Z" id="SvgjsPath1014" stroke="#000000" fill="#B6E4EF"></path>
                <path d="M111.487932,86.3230596 C111.487932,87.7573499 107.692746,95.0051367 105.309532,95.6047942 C97.7056173,97.5140483 92.0997562,88.6927554 92.9881991,76.2171238 C93.1528187,73.8968192 93.947642,67.9635317 94.7531468,63.0315529 C96.9396965,49.6354441 94.8106871,43.5641209 91.8531901,35.6827299 C90.0712778,30.9368518 79.6315841,22.4702026 78.330964,22.4867231 C76.6125119,22.5115583 78.7335287,23.4316049 80.1296533,26.2018092 C82.4393535,30.7841444 86.2997447,40.0474236 87.3873646,45.2538537 C88.7225423,51.6420538 91.0794364,59.375936 89.9013385,71.5063103 C88.9023115,81.7913438 87.1837893,87.545876 86.530966,89.4407183 L80.8829118,97.6125318 L85.7041518,100.700942 C87.9561183,102.27646 89.8396932,103.320136 93.2879072,105.099683 C96.7361212,106.879231 101.618159,107.36583 105.309532,107.248656 C106.715339,107.204714 111.480983,105.74991 113.108308,102.27646 C114.660122,98.9641841 111.487932,85.8236583 111.487932,86.3230596 Z" id="SvgjsPath1013" stroke="#000000" fill="#F2B5D3"></path>
                <path d="M113.607061,78.0435209 C113.607061,79.3499605 110.150173,85.9516893 107.979396,86.4978941 C101.053284,88.2369598 95.9471217,80.2019852 96.75637,68.8384147 C96.9063156,66.724939 97.8238715,61.420517 98.3639926,56.8281881 C99.8150463,44.4907424 97.730895,37.2161948 93.8701652,32.3814644 C90.874726,28.6303236 74.6749539,19.0489563 75.9466298,21.5722283 C78.0504464,25.7461003 90.6641154,35.8928333 91.6547864,40.6351692 C92.1009051,42.7696381 93.2211145,45.5031784 93.5141746,48.1659865 C93.7555495,50.359172 94.0117239,52.7759618 93.8701652,55.3614761 C93.7899842,56.8259498 93.4679234,63.4544067 92.74858,69.5590011 C92.076391,75.2634265 91.0061991,80.5016706 90.874726,80.8832757 L88.2258891,89.4720714 L90.1216129,91.1397785 C92.1728421,92.5748567 93.8885177,93.5255004 97.0293625,95.1464216 C100.170207,96.7673427 104.617067,97.2105669 107.979396,97.1038372 C109.259891,97.0638124 113.600732,95.7386875 115.082999,92.5748567 C116.496486,89.5578324 113.607061,77.5886356 113.607061,78.0435209 Z" id="SvgjsPath1012" stroke="#232323" fill="#FEF2A9"></path>
            </g>
            <g id="SvgjsG1011" transform="translate(44.695233, 0.000000)">
                <path d="M0.395920693,42.6143767 C1.84502965,42.1527553 2.73188433,41.4789036 2.74430526,40.8331291 C2.75755426,40.2658054 3.13266646,39.3144854 3.58561652,38.7207361 C4.12220086,38.0138525 4.3035465,36.5720081 4.10977993,34.5562336 C3.91849755,32.5916586 4.19010197,30.314106 4.85669209,28.2818155 C5.43219536,26.5302966 5.75265545,24.7011526 5.56799757,24.223841 C5.38416775,23.7432262 5.66239667,21.4788863 6.18324783,19.1881208 C6.70327093,16.8981812 7.25062008,14.1887359 7.39884323,13.1663971 C8.55730233,5.21478201 11.358637,-1.02412673 13.2507592,0.140249352 C14.5441925,0.937145042 16.4462515,5.85973075 16.6756247,9.00437198 C16.7956938,10.6113761 17.1964759,12.7080789 17.5691039,13.6627021 C18.3615595,15.701599 18.6331639,20.4111286 18.0121172,21.414474 C17.7728072,21.7984704 17.9765105,22.7464872 18.461755,23.5235637 C19.5614217,25.2783858 20.1625949,29.4850041 19.5415482,31.1010921 C19.273256,31.7980661 19.418995,32.9789582 19.884366,33.8881625 C20.3282074,34.7560769 21.8180803,41.3492532 22.0159872,42.6143767 C22.3356192,44.6978667 -3.47609844,43.8464683 0.395920693,42.6143767 Z" id="SvgjsPath1010" stroke="#000000" fill="#000000"></path>
                <path d="M12.994888,40.3368241 C18.0700816,39.9817307 18.8724739,39.775281 18.8724739,38.8173546 C18.8724739,36.9204951 17.7015939,34.5331112 16.7700238,34.5331112 C15.5047447,34.5331112 7.59343786,38.1468061 6.2958643,39.3169628 C4.95357537,40.530061 4.87242527,41.6077282 6.16337434,41.1139006 C6.68753775,40.9140573 9.76047679,40.5655703 12.994888,40.3368241 Z" id="SvgjsPath1009" stroke="#CFE7B7" fill="#CFE7B7"></path>
                <path d="M11.5424668,33.6338165 C14.1011792,32.4529244 16.5497593,31.0589763 16.9894603,30.5304652 C17.8696905,29.4726171 17.4978906,25.4823581 16.4172693,24.4079941 C15.5858948,23.5788922 8.44054555,26.9299831 7.36986105,28.6501217 C6.05324206,30.7625146 5.63589868,35.7718092 6.77779653,35.7718092 C6.84238539,35.7718092 8.98706664,34.8105796 11.5424668,33.6338165 Z" id="SvgjsPath1008" stroke="#FEF2A9" fill="#FEF2A9"></path>
                <path d="M12.6388212,22.4690189 C14.311507,21.6242268 15.8442502,20.6663004 16.0454693,20.34011 C16.666516,19.3400678 15.6438592,14.6305381 14.7354749,14.2820511 C13.4834447,13.8014363 10.2068024,15.324209 9.26529556,16.8238593 C8.81565776,17.5365236 8.26251217,19.4465958 8.03313892,21.0626838 C7.53133319,24.6045341 8.08116653,24.7721713 12.6388212,22.4690189 Z" id="SvgjsPath1007" stroke="#B6E4EF" fill="#B6E4EF"></path>
                <path d="M12.3282979,11.8145648 C13.5380968,11.2398089 14.525147,10.3884105 14.525147,9.92100848 C14.525147,8.21408268 13.1207534,3.56566212 12.6032145,3.56566212 C12.3125647,3.56566212 11.6269291,5.16936309 11.0770958,7.12733167 C10.5305747,9.08860345 9.94430662,11.1786998 9.77620998,11.772449 C9.40109777,13.1110686 9.59238016,13.1143718 12.3282979,11.8145648 Z" id="SvgjsPath1006" stroke="#F8C8E0" fill="#F8C8E0"></path>
            </g>
            <g id="SvgjsG1005" transform="translate(79.051510, 36.189720)">
                <path d="M16.5847333,22.768193 C22.6439506,19.0044683 24.9765676,14.9602592 23.7376267,10.3705147 C22.0000365,3.93011002 14.672546,-1.30649325 9.6364677,0.289181095 C7.45679768,0.981668866 4.08218521,4.41257 1.48767252,8.5748778 C-0.219886981,11.3112781 -0.263885447,11.5105697 0.391202818,13.4216212 C0.767634135,14.5173891 1.18457198,15.4131945 1.31866254,15.4131945 C1.45205471,15.4131945 2.50243078,14.3885542 3.65337477,13.1330846 C7.43444925,9.00231453 10.8146488,8.24742234 13.5837586,10.9079979 C14.9449175,12.2158067 15.1362759,12.7056479 14.8799674,14.2261685 C14.4735054,16.6270612 12.4404969,19.0675438 8.57212386,21.798576 C8.45637035,21.880261 9.5311583,22.9355708 10.1302283,23.7118017 C13.0909292,23.9183669 15.2424309,23.6038307 16.5847333,22.768193 Z" id="SvgjsPath1004" stroke="#000000" fill="#FFFFFF"></path>
                <path d="M1.31866254,15.4131945 C1.45205471,15.4131945 2.50243078,14.3885542 3.65337477,13.1330846 C7.43444925,9.00231453 10.8146488,8.24742234 13.5837586,10.9079979 C14.9449175,12.2158067 15.1362759,12.7056479 14.8799674,14.2261685 C14.4735054,16.6270612 12.4404969,19.0675438 8.57212386,21.798576 C8.51197411,21.8410225 7.14263741,19.2975524 5.26114063,17.6296765 C3.52184354,16.0878552 1.25425033,15.4131945 1.31866254,15.4131945 Z" id="SvgjsPath1003" fill="#000000"></path>
            </g>
            <g id="SvgjsG1002" transform="translate(12.029578, 51.503954) scale(-1, 1) translate(-12.029578, -51.503954) translate(0.000000, 39.617347)">
                <path d="M16.5847333,22.768193 C22.6439506,19.0044683 24.9765676,14.9602592 23.7376267,10.3705147 C22.0000365,3.93011002 14.672546,-1.30649325 9.6364677,0.289181095 C7.45679768,0.981668866 4.08218521,4.41257 1.48767252,8.5748778 C-0.219886981,11.3112781 -0.263885447,11.5105697 0.391202818,13.4216212 C0.767634135,14.5173891 1.18457198,15.4131945 1.31866254,15.4131945 C1.45205471,15.4131945 2.50243078,14.3885542 3.65337477,13.1330846 C7.43444925,9.00231453 10.8146488,8.24742234 13.5837586,10.9079979 C14.9449175,12.2158067 15.1362759,12.7056479 14.8799674,14.2261685 C14.4735054,16.6270612 12.4404969,19.0675438 8.57212386,21.798576 C8.45637035,21.880261 9.5311583,22.9355708 10.1302283,23.7118017 C13.0909292,23.9183669 15.2424309,23.6038307 16.5847333,22.768193 Z" id="SvgjsPath1001" stroke="#000000" fill="#FFFFFF"></path>
                <path d="M1.31866254,15.4131945 C1.45205471,15.4131945 2.50243078,14.3885542 3.65337477,13.1330846 C7.43444925,9.00231453 10.8146488,8.24742234 13.5837586,10.9079979 C14.9449175,12.2158067 15.1362759,12.7056479 14.8799674,14.2261685 C14.4735054,16.6270612 12.4404969,19.0675438 8.57212386,21.798576 C8.51197411,21.8410225 7.14263741,19.2975524 5.26114063,17.6296765 C3.52184354,16.0878552 1.25425033,15.4131945 1.31866254,15.4131945 Z" id="SvgjsPath1000" fill="#000000"></path>
            </g>
        </g>
    </g>
</svg><style>@media (prefers-color-scheme: light) { :root { filter: none; } }
</style></svg>